PathFileType	4	(X/Y/Z)	Walk9.trc
DataRate	CameraRate	NumFrames	NumMarkers	Units	OrigDataRate	OrigDataStartFrame	OrigNumFrames
200.000000	200.000000	7	56	mm	200.000000	352	502
Frame#	Times		RBHD		C7		RBack		RASI		RACR1		RUA1		RElbow		RFA1		RWRR		RCAR		LACR1		LElbow		LElbowM		LFA1		RTH1		RTH3		RTH2		RTH4		RLFC		RTB3		RTB2		RTB4		RMT1		RMT5		LTH3		LTH2		LWRU		LTH4		LPSI		CLAV		RPSI		LLFC		LTB1		LBHD		T10		LTB4		RWRU		LTB2		LMT1		LTH1		LWRR		LFHD		RFHD		LCAL		LLMAL		LMT5		RElbowM		LToe		LTB3		LMMAL		RCAL		RToe		LUA1		RLMAL		RMMAL		LCAR
			X1	Y1	Z1	X2	Y2	Z2	X3	Y3	Z3	X4	Y4	Z4	X5	Y5	Z5	X6	Y6	Z6	X7	Y7	Z7	X8	Y8	Z8	X9	Y9	Z9	X10	Y10	Z10	X11	Y11	Z11	X12	Y12	Z12	X13	Y13	Z13	X14	Y14	Z14	X15	Y15	Z15	X16	Y16	Z16	X17	Y17	Z17	X18	Y18	Z18	X19	Y19	Z19	X20	Y20	Z20	X21	Y21	Z21	X22	Y22	Z22	X23	Y23	Z23	X24	Y24	Z24	X25	Y25	Z25	X26	Y26	Z26	X27	Y27	Z27	X28	Y28	Z28	X29	Y29	Z29	X30	Y30	Z30	X31	Y31	Z31	X32	Y32	Z32	X33	Y33	Z33	X34	Y34	Z34	X35	Y35	Z35	X36	Y36	Z36	X37	Y37	Z37	X38	Y38	Z38	X39	Y39	Z39	X40	Y40	Z40	X41	Y41	Z41	X42	Y42	Z42	X43	Y43	Z43	X44	Y44	Z44	X45	Y45	Z45	X46	Y46	Z46	X47	Y47	Z47	X48	Y48	Z48	X49	Y49	Z49	X50	Y50	Z50	X51	Y51	Z51	X52	Y52	Z52	X53	Y53	Z53	X54	Y54	Z54	X55	Y55	Z55	X56	Y56	Z56

352	1.76	402.62	1602.2	343.21	365.76	1459	282.55	293.99	1367.6	381.84	436.95	949.65	412.38	432.55	1412.2	429.18	398.75	1226.4	521.25	369.47	1098.4	559.4	446.93	967.19	569.53	535.46	863.6	518.37	530.24	803.22	558.09	399.17	1441.2	105.33	295.06	1125.8	7.8541	278.62	1126.1	85.776	361.05	984.93	-35.07	405.23	743.9	451.11	466.84	564.38	439.87	503.17	678.66	433.46	435.68	653.1	448.41	480.4	470.64	430.47	331.11	242.69	341.36	386.63	317.08	417.22	403.03	308.3	345.92	298.59	78.181	298.61	273.04	86.832	379.21	443.26	578.89	92.617	502.92	676.92	112.56	329.55	868.48	-32.181	434.69	666.91	75.543	276.56	983.23	194.38	496.94	1376.6	266.89	265.45	978.05	298.6	442.28	460.96	110.73	479.17	371.45	174.03	386.17	1588.5	206.95	264.09	1150.6	259.75	458.51	280.62	185.17	472.16	839.8	557.8	433.83	278.04	117.53	527.81	37.867	242.93	428.53	764.34	65.88	407.01	872.69	-3.409	569.76	1614.3	205.64	580.97	1628.5	285.09	317.29	29.086	218.07	367.33	71.799	171.54	497.98	34.435	158.8	340.46	1066.9	469.9	571.68	40.318	225.89	444.59	189.68	194.23	396.29	92.158	257.57	147.83	197.38	329.54	340.75	63.755	328.02	342.95	1249	16.139	214.1	206.84	376.1	249.74	199.26	292	395.7	820.86	-52.324
353	1.765	408.69	1602.3	344.31	371.73	1459.5	282.74	299.82	1367.8	381.7	443.25	950.31	412.02	438.22	1412.5	429.73	403.55	1226.3	520.77	372.94	1098.4	558.43	447.68	966.28	570.19	534.61	860.57	518.84	528.16	800.44	558.68	405.74	1442	105.87	302.38	1126.6	7.3651	285.57	1127	85.295	370.79	986.2	-34.942	412.75	744.88	451.84	476.76	566.39	440.49	512.04	681	433.91	444.7	654.32	449.05	491.84	472.35	431.31	346.67	241.58	341.88	400.54	317.01	417.55	417.27	308.81	346.22	317.49	77.259	299.24	292.18	85.084	379.97	445.85	578.86	92.41	506.58	676.13	112.43	340.86	869.31	-31.605	438.51	667.02	75.52	283.14	983.56	194.69	503.18	1377	267.3	271.68	978.53	299.14	443.46	460.84	110.04	480.18	371.43	173.2	392.25	1589.1	208.23	270.32	1151	259.74	458.9	280.45	184.63	470.72	837.8	557.91	434.05	277.9	117.18	527.8	37.791	242.7	433.19	764.59	66.029	417.89	874.82	-2.5606	575.96	1615	206.48	587.17	1628.7	286.1	318.69	28.602	218.77	367.22	71.616	171.63	497.93	34.371	158.66	343.99	1067.3	468.95	571.66	40.328	225.8	445.33	189.34	193.93	396.39	92.248	257.49	164.02	192.09	329.47	360.83	63.032	328.95	349.58	1249.9	16.015	230.2	203.41	376.49	266.04	196.47	292.03	407.59	822.75	-51.543
354	1.77	415.09	1602.6	345.39	378	1459.6	282.91	305.32	1367.8	381.79	449.49	950.79	411.83	443.96	1412.6	430.27	408.73	1226	520.34	376.2	1098.5	557.52	448.46	965.05	570.37	533.68	857.49	519.14	526.2	797.69	559.07	411.97	1442.8	106.11	309.47	1126.9	6.8401	292.61	1127.4	84.631	380.06	987.73	-34.838	420.5	746.47	452.89	486.54	567.98	441.46	520.62	683.37	434.15	453.11	655.8	449.65	503.1	474.11	432.13	362.23	240.58	341.99	414.67	316.57	417.77	431.58	309.09	346.57	337.68	75.448	300.71	311.62	83.203	380.89	448.54	578.73	91.934	510.18	675.24	112.46	352.25	870.42	-31.141	443.27	666.82	74.612	289.28	983.97	195.33	509.33	1377.4	267.56	277.9	978.88	299.53	444.51	460.73	109.6	481.35	371.13	172.47	398.18	1589.8	209.28	276.62	1151	259.61	459.49	280.47	184.25	470.06	836.14	557.7	434.62	277.76	116.76	527.83	37.751	242.61	437.33	764.68	66.23	428.85	877.21	-1.8498	581.89	1615.4	207.34	593.26	1628.9	287.01	318.59	29.047	218.56	367.27	71.778	171.52	497.96	34.224	158.51	347.13	1067.7	468.05	571.69	40.24	225.79	445.83	189.58	193.38	396.52	92.305	257.4	180.77	186.38	329.5	381.03	62.33	329.83	356.22	1250.9	15.916	246.56	199.56	376.83	282.58	193.55	292.22	419.75	824.77	-50.728
355	1.775	421.36	1602.8	346.46	384.12	1459.9	283.39	311.12	1367.9	381.52	455.79	951.02	411.64	449.87	1412.4	430.59	413.58	1225.6	520.04	379.18	1098.5	556.62	449.44	963.95	569.97	532.95	854.51	519.38	524.11	794.9	559.73	418.57	1443.5	106.55	316.69	1127.7	6.2378	299.58	1127.8	83.888	389.53	988.8	-34.638	428.07	747	453.52	495.92	569.74	442.46	529.23	685.5	434.5	461.82	657.07	450.5	513.98	475.63	432.81	377.91	239.4	341.95	428.62	316.22	418.19	445.65	309.33	346.97	358.01	74.364	301.65	331.16	81.278	381.67	451.14	578.65	91.665	513.87	674.37	112.5	363.75	871.14	-30.99	447.06	667.21	74.684	295.05	984.31	195.83	515.34	1377.8	268.03	283.97	979.14	299.75	445.5	460.59	109.35	482.4	370.81	172	404.1	1590.2	210.17	282.83	1151.2	259.61	460.27	280.28	183.81	468.29	835.1	558.51	435.17	277.64	116.3	527.91	37.706	242.62	441.24	764.59	66.73	439.62	879.57	-1.0321	587.6	1615.8	208.22	599.39	1628.9	287.73	318.05	28.38	219.35	367.37	71.867	171.4	497.98	34.14	158.38	349.89	1068.1	467.04	571.81	40.059	225.81	446.13	189.69	193.05	396.62	92.37	257.31	197.59	180.62	329.77	401.39	61.958	330.87	363.38	1251.7	15.624	262.92	195.55	377.26	299.44	190.42	292.66	431.98	826.49	-49.621
356	1.78	427.43	1602.5	347.67	390.01	1460.1	283.77	317.19	1368.1	381.42	462.03	951.09	411.5	455.54	1412.2	431.05	418.27	1225.1	519.77	382.51	1098.4	555.98	450.29	962.92	569.61	532.18	851.58	519.66	521.9	792.38	560.39	424.79	1444	107.07	324.09	1128	5.6699	306.53	1128.5	83.415	399.25	990.09	-34.48	435.47	747.62	453.65	505.4	571.5	443.32	537.19	687.58	435.16	470.28	658.46	451.34	524.92	477.29	433.2	393.49	238	342.48	442.51	315.86	418.9	459.63	309.46	347.61	378.33	72.456	303.09	350.87	79.425	382.53	453.7	578.47	91.447	517.42	673.42	112.71	374.64	872.31	-30.569	449.76	667.04	74.939	300.86	984.52	195.85	521.24	1378	268.68	290.08	979.28	300.22	446.91	460.5	109.16	483.5	370.69	171.78	410.04	1590.6	211.2	288.95	1151.4	259.74	460.91	279.92	183.58	467.09	833.88	559.2	435.84	277.54	116.02	528	37.638	242.61	445.87	764.53	66.894	450.58	881.61	-0.11047	593.82	1616	208.98	605.46	1629.1	288.71	318.12	29.015	218.65	367.44	71.916	171.37	498.12	33.971	158.19	352.89	1068.7	465.99	572.04	39.74	225.86	446.47	189.59	192.92	396.68	92.424	257.25	214.68	174.53	329.91	421.41	61.703	332.4	370.33	1252.4	15.302	279.43	191.42	377.6	316.37	187	293.18	443.54	828.03	-48.295
357	1.785	433.51	1602.2	348.62	395.98	1459.9	283.96	323.02	1368	381.34	468.37	951.07	411.47	461.27	1412	431.41	423.19	1224.7	519.4	385.67	1098.2	555.33	451.25	961.79	569.25	531.38	848.57	519.97	519.72	789.97	561.05	431.19	1444.4	107.36	331.19	1128.6	4.8684	313.3	1129	82.528	408.28	991.26	-34.297	443.04	748.28	453.77	515.17	573.04	444.03	544.91	689.42	435.68	478.83	659.72	452.33	535.71	478.69	433.77	409.08	236.52	343.03	456.22	315.57	419.38	473.5	309.5	348.23	398.63	70.8	304.2	370.63	77.552	383.52	456.29	578.27	91.26	521.01	672.32	112.97	385.69	873.18	-30.443	453.34	666.51	74.752	307.08	984.37	196.22	527.23	1378	269.14	296.1	979.54	300.61	448.1	460.31	108.87	483.86	370.48	171.67	416.05	1590.8	212.33	295.25	1151.3	259.46	461.62	279.6	183.45	465.88	832.26	559.46	436.59	277.35	115.84	528.23	37.368	242.76	450.68	764.54	67.147	461.47	883.74	0.80711	599.79	1616.2	209.89	611.52	1629.2	289.54	318.19	29.827	217.92	367.54	71.941	171.45	498.3	33.862	157.99	356.14	1069.2	464.89	572.3	39.422	225.78	446.94	189.36	192.92	396.76	92.423	257.22	231.9	168.44	330.32	441.81	61.499	334.07	376.88	1253	15.17	296.48	187.23	377.88	333.36	183.57	293.69	455.94	830.54	-47.661
358	1.79	439.73	1601.9	349.64	402.16	1460	284.34	329.05	1367.8	381.2	474.68	950.99	411.37	466.88	1411.6	431.8	428.03	1223.9	518.91	388.89	1097.8	554.56	452.04	960.49	568.92	530.43	845.62	520.32	517.91	787.6	561.61	437.78	1444.7	107.71	338.25	1128.9	4.0804	320.19	1129.5	81.888	417.68	992.62	-34.099	450.85	748.86	454.2	525.08	574.41	444.52	552.93	691.03	436.13	487.3	660.77	453.14	546.12	480.14	434.28	424.68	234.93	343.66	470.02	315.27	419.8	487.81	309.45	348.92	418.8	69.49	305.47	390.75	75.42	384.59	458.86	578.07	91.256	524.74	671.31	113.27	397.09	874.04	-30.029	456.65	666.22	74.773	313.12	984.43	196.63	533.51	1378	269.47	302.32	979.57	300.64	449.7	460.02	108.75	483.9	370.03	171.94	421.93	1590.8	213.31	301.41	1151.3	259.54	462.12	279.42	183.42	464.42	831.02	559.7	437.48	277.17	115.86	528.44	37.228	242.85	456.05	764.59	67.261	472.23	885.91	1.6545	605.71	1616.5	210.78	617.51	1629.1	290.52	318.1	30.045	217.91	367.6	71.978	171.48	498.49	33.666	157.81	359.32	1069.5	463.85	572.59	39.027	225.97	446.53	189.12	193.33	397.49	92.784	257.02	249.4	161.93	330.76	462.33	62.352	336.59	383.84	1253.5	15.014	313.56	182.79	378.28	349.84	180.09	294.19	468.02	832.8	-47.005
